<svg width="945" height="177" viewBox="0 0 945 177" fill="none" xmlns="http://www.w3.org/2000/svg">
<g opacity="0.5">
<path d="M124.632 106L136.728 40.816H158.616L170.232 84.592L181.656 40.816H203.64L215.736 106H196.92L190.104 61.456L179.064 106.096H161.304L150.264 61.456L143.448 106H124.632ZM246.104 107.056C241.048 107.056 236.6 106.16 232.76 104.368C228.984 102.512 226.04 99.952 223.928 96.688C221.88 93.36 220.855 89.456 220.855 84.976C220.855 80.432 221.944 76.496 224.12 73.168C226.36 69.84 229.4 67.28 233.24 65.488C237.08 63.632 241.464 62.704 246.392 62.704C250.808 62.704 254.904 63.568 258.68 65.296C262.52 66.96 265.592 69.424 267.896 72.688C270.2 75.888 271.352 79.856 271.352 84.592V87.664H236.024V79.216H254.36C253.848 76.976 253.016 75.344 251.864 74.32C250.712 73.296 249.016 72.784 246.776 72.784C244.728 72.784 243.096 73.2 241.88 74.032C240.664 74.864 239.8 76.016 239.288 77.488C238.776 78.896 238.52 80.56 238.52 82.48C238.52 85.232 238.776 87.632 239.288 89.68C239.864 91.728 240.696 93.296 241.784 94.384C242.936 95.472 244.344 96.016 246.008 96.016C247.992 96.016 249.88 95.728 251.672 95.152C253.528 94.576 255.096 93.904 256.376 93.136C257.72 92.368 258.584 91.728 258.968 91.216L268.375 99.472C267.16 100.688 265.4 101.904 263.096 103.12C260.856 104.272 258.264 105.232 255.32 106C252.376 106.704 249.304 107.056 246.104 107.056ZM280.16 106.096V63.664H297.056V68.368C298.528 66.64 300.256 65.264 302.24 64.24C304.288 63.216 306.4 62.704 308.576 62.704C311.072 62.704 313.472 63.312 315.776 64.528C318.08 65.68 320.032 67.376 321.632 69.616C323.936 66.864 326.368 65.04 328.927 64.144C331.552 63.184 334.592 62.704 338.048 62.704C341.888 62.704 345.024 63.696 347.456 65.68C349.952 67.6 351.776 70.16 352.928 73.36C354.144 76.496 354.752 79.92 354.752 83.632V106.096H337.76V83.632C337.76 82.416 337.6 81.232 337.28 80.08C337.024 78.928 336.512 77.968 335.744 77.2C335.04 76.368 333.952 75.952 332.48 75.952C330.56 75.952 329.12 76.496 328.16 77.584C327.2 78.608 326.528 79.92 326.144 81.52C325.824 83.12 325.664 84.688 325.664 86.224V106.096H308.672V83.632C308.672 82.416 308.512 81.232 308.192 80.08C307.936 78.928 307.424 77.968 306.656 77.2C305.952 76.368 304.864 75.952 303.392 75.952C302.048 75.952 300.864 76.528 299.84 77.68C298.88 78.768 298.144 80.016 297.632 81.424C297.184 82.832 296.992 84.048 297.056 85.072V106.096H280.16ZM387.407 106.96C382.351 106.96 377.839 106.096 373.871 104.368C369.903 102.64 366.799 100.144 364.559 96.88C362.319 93.552 361.199 89.584 361.199 84.976C361.199 80.432 362.351 76.528 364.655 73.264C366.959 69.936 370.095 67.376 374.063 65.584C378.031 63.792 382.479 62.896 387.407 62.896C392.335 62.896 396.751 63.792 400.655 65.584C404.559 67.376 407.663 69.936 409.967 73.264C412.271 76.528 413.423 80.432 413.423 84.976C413.423 89.584 412.303 93.552 410.063 96.88C407.823 100.144 404.751 102.64 400.847 104.368C396.943 106.096 392.463 106.96 387.407 106.96ZM387.407 94.48C389.903 94.48 391.695 94 392.783 93.04C393.935 92.016 394.639 90.768 394.895 89.296C395.215 87.76 395.375 86.256 395.375 84.784C395.375 83.376 395.183 81.968 394.799 80.56C394.479 79.088 393.743 77.872 392.591 76.912C391.503 75.888 389.775 75.376 387.407 75.376C384.975 75.376 383.183 75.888 382.031 76.912C380.879 77.872 380.143 79.088 379.823 80.56C379.503 81.968 379.343 83.376 379.343 84.784C379.343 86.256 379.471 87.76 379.727 89.296C380.047 90.768 380.783 92.016 381.935 93.04C383.087 94 384.911 94.48 387.407 94.48ZM440.161 106.96C436.193 106.96 432.609 105.936 429.409 103.888C426.209 101.84 423.681 99.152 421.825 95.824C419.969 92.432 419.041 88.784 419.041 84.88C419.041 80.976 419.969 77.36 421.825 74.032C423.681 70.64 426.209 67.92 429.409 65.872C432.609 63.76 436.193 62.704 440.161 62.704C442.593 62.704 445.057 63.056 447.553 63.76C450.113 64.464 452.321 65.936 454.177 68.176V63.76H471.169V106H454.177V101.584C453.345 102.928 452.129 104.016 450.529 104.848C448.929 105.616 447.201 106.16 445.345 106.48C443.553 106.8 441.825 106.96 440.161 106.96ZM445.729 93.808C447.329 93.808 448.769 93.392 450.049 92.56C451.329 91.728 452.321 90.64 453.025 89.296C453.793 87.888 454.177 86.416 454.177 84.88C454.177 83.28 453.793 81.808 453.025 80.464C452.321 79.12 451.329 78.032 450.049 77.2C448.769 76.368 447.329 75.952 445.729 75.952C444.129 75.952 442.689 76.368 441.409 77.2C440.129 78.032 439.105 79.12 438.337 80.464C437.633 81.808 437.281 83.28 437.281 84.88C437.281 86.416 437.633 87.888 438.337 89.296C439.105 90.64 440.129 91.728 441.409 92.56C442.689 93.392 444.129 93.808 445.729 93.808ZM482.097 106V63.664H498.993V67.792C499.697 67.152 500.721 66.448 502.065 65.68C503.473 64.848 505.073 64.144 506.865 63.568C508.657 62.928 510.449 62.608 512.241 62.608C512.817 62.608 513.553 62.704 514.449 62.896C515.345 63.088 516.049 63.344 516.561 63.664V78.16C515.857 77.264 514.929 76.624 513.777 76.24C512.625 75.856 511.473 75.664 510.321 75.664C508.657 75.664 506.929 76.144 505.137 77.104C503.409 78 501.937 79.152 500.721 80.56C499.569 81.968 498.993 83.408 498.993 84.88V106H482.097ZM534.32 130L540.752 112.432L522.32 63.664H539.024L549.296 91.984L558.704 63.664H575.6L551.6 130H534.32Z" fill="#322A18"/>
<mask id="mask0_30_434" style="mask-type:alpha" maskUnits="userSpaceOnUse" x="0" y="0" width="162" height="177">
<rect width="161.269" height="176.201" fill="#D9D9D9"/>
</mask>
<g mask="url(#mask0_30_434)">
<path d="M77.4651 143.857C72.2523 139.687 66.6052 136.449 60.5237 134.144C54.4421 131.839 48.1434 130.686 41.6275 130.686C37.0663 130.686 32.5867 131.29 28.1884 132.497C23.7902 133.705 21.2431 134.295 16.6225 136.542C15.3065 136.67 8.31126 140.104 5.93659 141.291C5.93662 140.104 5.93659 134.167 5.78992 131.674V52.3185C5.93659 49.8674 5.78997 49.8674 5.78997 48.6801C7.12397 47.4928 8.17909 46.9403 9.37368 46.3916C14.3692 43.7573 19.582 41.7817 25.0119 40.4646C30.4418 39.1475 35.9804 38.4889 41.6275 38.4889C47.9262 38.4889 54.0892 39.3121 60.1164 40.9585C66.1437 42.6049 71.9265 45.0744 77.4651 48.3672V128.052C83.0036 124.54 88.8136 121.906 94.8952 120.149C100.977 118.393 107.113 117.515 113.303 117.515C117.212 117.515 121.04 117.845 124.787 118.503C128.534 119.162 132.307 120.149 136.108 121.467C136.108 121.467 135.879 46.826 136.844 45.861C137.809 44.896 141.097 44.6267 141.852 44.3888C142.606 44.151 145.048 45.861 145.711 46.3188C146.375 46.7765 147.997 47.6363 149.14 49.2137C150.283 50.7911 149.14 51.1112 149.14 52.3185V131.674C149.14 134.199 149.14 142.478 149.14 142.478C148.415 142.478 141.647 138.808 139.366 137.601C135.348 135.406 131.14 133.705 126.742 132.497C122.344 131.29 117.864 130.686 113.303 130.686C106.787 130.686 100.488 131.839 94.4065 134.144C88.325 136.449 82.6778 139.687 77.4651 143.857ZM90.4969 110.93V48.3672L123.077 15.4396V81.2948L90.4969 110.93ZM64.4332 121.631V56.4345C60.8495 54.8979 57.13 53.718 53.2747 52.8948C49.4194 52.0716 45.537 51.66 41.6275 51.66C37.6093 51.66 33.6998 52.0441 29.8988 52.8124C26.0979 53.5808 22.4055 54.7332 18.8218 56.2698V121.631C22.6227 120.204 26.3965 119.162 30.1432 118.503C33.8898 117.845 37.7179 117.515 41.6275 117.515C45.537 117.515 49.3651 117.845 53.1118 118.503C56.8585 119.162 60.6323 120.204 64.4332 121.631Z" fill="#322A18"/>
</g>
<line x1="127.286" y1="98.349" x2="121.656" y2="124.295" stroke="#322A18" stroke-width="2"/>
<line x1="137.149" y1="98.3958" x2="132.4" y2="124.517" stroke="#322A18" stroke-width="20"/>
</g>
</svg>
